<?xml version="1.0" encoding="UTF-8"?><svg width="170" height="62" xmlns="http://www.w3.org/2000/svg" viewBox="0 0 222.3 94.26"><defs><style>.cls-1{fill:#fc9b3d;}.cls-2{fill:#fff;}</style></defs><g id="Capa_2" data-name="Capa 2"><g id="Capa_1-2" data-name="Capa 1"><path d="M167.41,72.87v4.79h-14V12.33h14v23c2.6-2.74,8.22-4.93,13.84-4.93,16.72,0,26,9.31,26,24s-9.32,24-26,24C174.81,78.35,169.19,75.47,167.41,72.87Zm27-18.49c0-4.11-1.1-7.4-3.43-9.73a12.92,12.92,0,0,0-17.81,0c-2.2,2.33-3.43,5.48-3.43,9.73s1.1,7.53,3.43,9.86A13.11,13.11,0,0,0,191,64.1C193.31,61.77,194.41,58.49,194.41,54.38Z"/><path d="M209.07,13.83a8.06,8.06,0,0,1,11,0,7.29,7.29,0,0,1,0,10.55,8,8,0,0,1-11,0A7.29,7.29,0,0,1,209.07,13.83Zm-1.5,18.63h14V78.89h-14Z"/><path d="M113.27,72.87v4.79H99.16V12.33h14v23c2.6-2.74,8.22-4.93,13.84-4.93,16.72,0,26,9.31,26,24s-9.32,24-26,24C120.54,78.35,115.06,75.47,113.27,72.87Zm26.87-18.49c0-4.11-1.1-7.4-3.43-9.73a13.12,13.12,0,0,0-17.82.14c-2.19,2.33-3.42,5.48-3.42,9.72s1.09,7.54,3.42,9.87a13.12,13.12,0,0,0,17.82-.14C139,61.77,140.14,58.49,140.14,54.38Z"/><path d="M61.88,80.26c-4.25-1.5-13.71-4.79-15.21-21V0h-16V62.18c.55,25.07,22.75,32.6,31.25,32.05Z"/><path class="cls-1" d="M29.12,0V24.93L1.44,14.52a2.19,2.19,0,0,1,0-4.11Z"/><path d="M92.44,36.84q-6.57-7-18.09-7c-7.67,0-13.57,2.33-18.09,7a24.52,24.52,0,0,0-6.72,17.54c0,7.12,2.2,13,6.72,17.67s10.42,6.84,18.09,6.84,13.57-2.32,18.09-6.84a24.85,24.85,0,0,0,6.72-17.67C99.16,47.25,97,41.5,92.44,36.84ZM84.22,64.65a13.8,13.8,0,0,1-9.87,3.7,13.83,13.83,0,0,1-9.87-3.7c-2.46-2.47-3.7-5.89-3.7-10.41S62,46.43,64.48,44a13.79,13.79,0,0,1,9.87-3.7A13.75,13.75,0,0,1,84.22,44c2.6,2.46,3.84,5.89,3.84,10.27S86.82,62.18,84.22,64.65Z"/><path class="cls-2" d="M112.1,87.28V80.43H105v6.85Z"/><path class="cls-2" d="M105,94.17V87.32H97.83v6.85Z"/><path d="M112.11,94.14V87.29H105v6.85Z"/><path d="M105,87.31V80.46H97.82v6.85Z"/><path class="cls-2" d="M97.8,87.34V80.49H90.67v6.85Z"/><path class="cls-2" d="M90.65,94.09V87.24H83.52v6.85Z"/><path d="M97.8,94.2V87.35H90.68V94.2Z"/><path d="M90.64,87.23V80.38H83.51v6.85Z"/><path class="cls-2" d="M83.49,87.26V80.41H76.36v6.85Z"/><path class="cls-2" d="M76.34,94.14V87.29H69.21v6.85Z"/><path d="M83.49,94.12V87.27H76.37v6.85Z"/><path d="M76.33,87.29V80.44H69.2v6.85Z"/><path class="cls-2" d="M69.18,87.31V80.47H62.05v6.84Z"/><path d="M69.18,94.17V87.32H62.06v6.85Z"/></g></g></svg>