<?xml version="1.0" encoding="UTF-8"?><svg width="211px" height="47px" xmlns="http://www.w3.org/2000/svg" viewBox="0 0 423.76 114.23"><g id="Capa_2" data-name="Capa 2"><g id="Capa_1-2" data-name="Capa 1"><path d="M423.58,34.75a8,8,0,0,0-1-3.23,1.9,1.9,0,0,0-1.74-1H409.38l0-10.53v-.1A2.43,2.43,0,0,0,408.31,18a8.22,8.22,0,0,0-3.09-1.35,25.32,25.32,0,0,0-9.5-.41,11.55,11.55,0,0,0-4.65,1.45,2.72,2.72,0,0,0-1.43,2.51l0,10.38h-7.81a1.73,1.73,0,0,0-1.36.75,5.89,5.89,0,0,0-.93,2.15,35.83,35.83,0,0,0-.29,9.48,8,8,0,0,0,1,3.23,1.9,1.9,0,0,0,1.75,1h7.66l0,28.05V97.85c0,.84,0,1.68.08,2.52a13.16,13.16,0,0,0,9.5,11.86,22.42,22.42,0,0,0,9.77.64,26.93,26.93,0,0,0,8.17-2.48c.3-.14.52-.26.45-.71-.51-3.51-1-7-1.48-10.54-.16-1.13-.58-1.4-1.74-1.21a9.61,9.61,0,0,1-1.93.16,2.82,2.82,0,0,1-3-2.42,11.23,11.23,0,0,1-.25-2.89l0-45.65H421a1.68,1.68,0,0,0,1.36-.75,5.82,5.82,0,0,0,.93-2.15,35.83,35.83,0,0,0,.29-9.48"/><path d="M420.82,30.53h0Z"/><path d="M389.64,20.16h0Z"/><path d="M253.7,19.8v0h0Z"/><path d="M293.23,94.47q-3.35,4.26-8,4.26a14.75,14.75,0,0,1-4.83-.86,14.92,14.92,0,0,1-4.94-3.09V69.68q5.07-5.57,10.51-5.56,10.62,0,10.63,16.56,0,9.52-3.34,13.79m15.52-36.72a22.33,22.33,0,0,0-7.61-6.25,22.08,22.08,0,0,0-10-2.22,21.19,21.19,0,0,0-8.47,1.79,28.75,28.75,0,0,0-7.73,5l-1.48,1.36V19.54a2.46,2.46,0,0,0-1.08-2,8.43,8.43,0,0,0-3.1-1.35,25.31,25.31,0,0,0-9.5-.41,11.65,11.65,0,0,0-4.65,1.45,2.72,2.72,0,0,0-1.42,2.51v89.79a2.43,2.43,0,0,0,1.08,2,8.22,8.22,0,0,0,3.09,1.35,25.33,25.33,0,0,0,9.5.41,11.55,11.55,0,0,0,4.65-1.45,2.74,2.74,0,0,0,1.43-2.53v-3.77a25.85,25.85,0,0,0,7.73,6,18.47,18.47,0,0,0,8.22,2,21.83,21.83,0,0,0,9.58-2.23,25.23,25.23,0,0,0,8.28-6.49,32.22,32.22,0,0,0,5.81-10.44,42.65,42.65,0,0,0,2.17-14.1,46,46,0,0,0-1.67-12.8,28.49,28.49,0,0,0-4.82-9.76"/><path d="M360,93.14a10.25,10.25,0,0,1-17.43,0q-2.86-4.85-2.87-13.15t2.87-13.15a10.25,10.25,0,0,1,17.43,0Q363,71.7,363,80T360,93.14m12.7-37.66A29.54,29.54,0,0,0,362.88,49a30.63,30.63,0,0,0-11.55-2.23A31.18,31.18,0,0,0,339.71,49a29.39,29.39,0,0,0-9.89,6.45A30.85,30.85,0,0,0,323,65.88,36.6,36.6,0,0,0,320.43,80,36.6,36.6,0,0,0,323,94.1a30.75,30.75,0,0,0,6.83,10.4,29.39,29.39,0,0,0,9.89,6.45,31.18,31.18,0,0,0,11.62,2.23A30.63,30.63,0,0,0,362.88,111a29.54,29.54,0,0,0,9.83-6.45,30.9,30.9,0,0,0,6.83-10.4A36.79,36.79,0,0,0,382.09,80a36.79,36.79,0,0,0-2.55-14.11,31,31,0,0,0-6.83-10.4"/><path d="M109,100.85l-.31-2.22a2.87,2.87,0,0,0-1-2,3,3,0,0,0-2.31-.38,7.42,7.42,0,0,1-1.64.15c-1.1-.05-1.45-.34-1.73-1.41a10.48,10.48,0,0,1-.2-2.55l.06-41.59v-.13a3.74,3.74,0,0,0-1.62-3,9.74,9.74,0,0,0-3.61-1.6,26.78,26.78,0,0,0-10-.44,13,13,0,0,0-5.2,1.65A4.08,4.08,0,0,0,79.25,51a1.36,1.36,0,0,0,1.29,1.36A1.38,1.38,0,0,0,82,51.14a1.34,1.34,0,0,0,0-.2,1.39,1.39,0,0,1,.78-1.29,10.55,10.55,0,0,1,4.14-1.27,23.89,23.89,0,0,1,9,.39,6.71,6.71,0,0,1,2.6,1.12c.45.33.55.6.55.87L99,92.44a12.68,12.68,0,0,0,.29,3.23,4.18,4.18,0,0,0,4.24,3.46,10.19,10.19,0,0,0,2.22-.18l.16,0s0,0,0,.08l.31,2.22c.36,2.57.72,5.22,1.11,7.84a26,26,0,0,1-7.42,2.17,21,21,0,0,1-9.22-.59A11.88,11.88,0,0,1,82.14,100c0-.76-.08-1.56-.08-2.43V61.4a1.37,1.37,0,0,0-2.73,0V97.53c0,.94,0,1.8.09,2.62a14.56,14.56,0,0,0,10.49,13.11,22.29,22.29,0,0,0,6.6,1,27.89,27.89,0,0,0,3.8-.28,28.58,28.58,0,0,0,8.61-2.61,1.92,1.92,0,0,0,1.21-2.14c-.41-2.78-.8-5.61-1.18-8.35"/><path d="M242.82,100.85l-.31-2.22a2.83,2.83,0,0,0-1-2,2.94,2.94,0,0,0-2.3-.38,7.56,7.56,0,0,1-1.65.15c-1.09-.05-1.45-.34-1.72-1.41a10,10,0,0,1-.21-2.55l.07-41.59v-.13a3.78,3.78,0,0,0-1.63-3,9.67,9.67,0,0,0-3.61-1.6,26.77,26.77,0,0,0-10-.44,13,13,0,0,0-5.2,1.65,4.12,4.12,0,0,0-2.08,3.7,1.36,1.36,0,0,0,1.3,1.36,1.39,1.39,0,0,0,1.43-1.24,1.34,1.34,0,0,0,0-.2,1.39,1.39,0,0,1,.78-1.29,10.55,10.55,0,0,1,4.14-1.27,23.89,23.89,0,0,1,9,.39,6.76,6.76,0,0,1,2.61,1.12,1,1,0,0,1,.54.87l-.06,41.68a12.68,12.68,0,0,0,.29,3.23,4.19,4.19,0,0,0,4.24,3.46,10.19,10.19,0,0,0,2.22-.18l.16,0s0,0,0,.08l.31,2.22c.36,2.57.73,5.22,1.11,7.84a26,26,0,0,1-7.42,2.17,21,21,0,0,1-9.22-.59A11.87,11.87,0,0,1,216,100c-.06-.76-.08-1.56-.08-2.43V61.4a1.37,1.37,0,0,0-2.74,0V97.53c0,.94,0,1.8.09,2.62a14.56,14.56,0,0,0,10.5,13.11,22.17,22.17,0,0,0,6.59,1,27.78,27.78,0,0,0,3.8-.28,28.58,28.58,0,0,0,8.61-2.61A1.91,1.91,0,0,0,244,109.2c-.41-2.78-.8-5.61-1.18-8.35"/><path d="M68.85,36.43,47.5,71.14c0,.06-.08.14-.13.23a2,2,0,0,0-.29,1,2.1,2.1,0,0,0,.29,1.09h0l.13.22,21.33,34.68a1.73,1.73,0,0,1,.08.16,4.27,4.27,0,0,1-1.27,1l-.08,0a13,13,0,0,1-5.12,1.57,29.26,29.26,0,0,1-11-.47l-.32-.08a5.6,5.6,0,0,1-2.77-1.17,31.77,31.77,0,0,1-2.15-3.11l-16-25.5a2.05,2.05,0,0,0-1.83-.94h-1c-.32,0-.36,0-1.27,0a2,2,0,0,0-1.49.52A1.89,1.89,0,0,0,24,81.61v.07a1.75,1.75,0,0,0,0,.23v25.84A1.92,1.92,0,0,1,23,109.58a13,13,0,0,1-5.12,1.57,29.26,29.26,0,0,1-11-.47,8.7,8.7,0,0,1-3.26-1.4,1.64,1.64,0,0,1-.77-1.19V6.45a1.92,1.92,0,0,1,1.08-1.8A12.85,12.85,0,0,1,9,3.08a29.2,29.2,0,0,1,11,.47A8.65,8.65,0,0,1,23.23,5,1.52,1.52,0,0,1,24,6.22V62.28L24,63a2,2,0,0,0,.53,1.5A2,2,0,0,0,26,65l1.28,0h.92a2.09,2.09,0,0,0,1.9-1l16-25.48a31.77,31.77,0,0,1,2.15-3.11,5.7,5.7,0,0,1,2.77-1.17l.32-.07a29.25,29.25,0,0,1,11-.48,13.11,13.11,0,0,1,5.13,1.57l.07.05c.39.24,1.19.73,1.27,1a.36.36,0,0,1-.07.16M69.1,33,69,32.9A15.53,15.53,0,0,0,62.82,31a31.79,31.79,0,0,0-12.06.53l-.31.07a7.84,7.84,0,0,0-4.13,2,33.69,33.69,0,0,0-2.49,3.54L28,62.19H26.77v-56a4.33,4.33,0,0,0-1.86-3.45A11.41,11.41,0,0,0,20.64.86a31.94,31.94,0,0,0-12-.53,15.4,15.4,0,0,0-6.19,2A4.72,4.72,0,0,0,0,6.54a.22.22,0,0,0,0,.08V107.87A1,1,0,0,0,0,108v.19a.86.86,0,0,0,0,.16,4.38,4.38,0,0,0,1.85,3.09,11.25,11.25,0,0,0,4.27,1.88,31.79,31.79,0,0,0,12.06.53,15.37,15.37,0,0,0,6.2-2,4.68,4.68,0,0,0,2.39-4,.37.37,0,0,0,0-.11V82.66H28l15.82,25.13a32.61,32.61,0,0,0,2.49,3.55,7.84,7.84,0,0,0,4.13,2l.31.07a29.9,29.9,0,0,0,7.24.87,34.92,34.92,0,0,0,4.82-.34,15.37,15.37,0,0,0,6.2-2l.08,0c1-.62,3.69-2.26,2.11-4.93L50,72.42,71.23,37.86c1.56-2.65-1.12-4.29-2.13-4.91"/><path d="M200.76,90.1a20.58,20.58,0,0,1-20.4,20.7,20.29,20.29,0,0,1-19-13.19,1.44,1.44,0,0,0-.56-.68,1.36,1.36,0,0,0-.71-.2,1.29,1.29,0,0,0-.43.07,1.33,1.33,0,0,0-.83.81,20.31,20.31,0,0,1-19,13.19,20.57,20.57,0,0,1-20.41-20.61v-39a1.33,1.33,0,0,1,.74-1.26,10,10,0,0,1,4-1.24,22.89,22.89,0,0,1,8.75.38,6.58,6.58,0,0,1,2.52,1.1,1.09,1.09,0,0,1,.52.8V87.27a7.93,7.93,0,0,0,15.86,0,.92.92,0,0,0,0-.16v-36a1.34,1.34,0,0,1,.74-1.24,10.1,10.1,0,0,1,4-1.25,22.9,22.9,0,0,1,8.75.38,6.58,6.58,0,0,1,2.52,1.1,1,1,0,0,1,.52.83l0,36a7.93,7.93,0,0,0,15.86.47,1.1,1.1,0,0,0,0-.18V51.16a1.31,1.31,0,0,1,.74-1.25,10.05,10.05,0,0,1,4-1.25,22.88,22.88,0,0,1,8.75.38,6.58,6.58,0,0,1,2.52,1.1c.42.32.52.58.52.83V89.81a.61.61,0,0,0,0,.14.76.76,0,0,0,0,.15m1.12-42.16a9.35,9.35,0,0,0-3.51-1.57,25.53,25.53,0,0,0-9.76-.44,12.61,12.61,0,0,0-5.06,1.63,4.08,4.08,0,0,0-2,3.67V87.11a5.27,5.27,0,0,1-5.22,5.17,5.14,5.14,0,0,1-3.69-1.55A5.29,5.29,0,0,1,171.07,87l0-36a3.77,3.77,0,0,0-1.59-3,9.42,9.42,0,0,0-3.51-1.57,25.54,25.54,0,0,0-9.76-.44,12.7,12.7,0,0,0-5.07,1.63,4.07,4.07,0,0,0-2,3.67V87a5.23,5.23,0,1,1-10.45.1V51A3.77,3.77,0,0,0,137,48a9.35,9.35,0,0,0-3.51-1.57,25.53,25.53,0,0,0-9.76-.44,12.44,12.44,0,0,0-5.06,1.62,4.08,4.08,0,0,0-2,3.67V90.1h0v.28a23.32,23.32,0,0,0,23.13,23.16,22.91,22.91,0,0,0,20.29-12.18,22.91,22.91,0,0,0,20.28,12.18A23.31,23.31,0,0,0,203.48,90.1s0-.1,0-.15,0-.09,0-.14V51a.13.13,0,0,0,0-.06,3.78,3.78,0,0,0-1.59-3"/><path d="M81.14,30.77a3.49,3.49,0,0,0,3.49-3.41,6.73,6.73,0,0,1,2-4.64A5.91,5.91,0,0,1,91,20.92h0a6.46,6.46,0,0,1,4.58,2,6.37,6.37,0,0,1,1.78,4.62,3.5,3.5,0,0,0,3.4,3.59h.1a3.49,3.49,0,0,0,3.49-3.4A13.49,13.49,0,0,0,91.13,13.93h0a12.87,12.87,0,0,0-9.43,3.84,13.65,13.65,0,0,0-4,9.43,3.48,3.48,0,0,0,3.41,3.57h.08"/><path d="M214.85,30.78a3.5,3.5,0,0,0,3.49-3.42,6.73,6.73,0,0,1,2-4.64,5.91,5.91,0,0,1,4.34-1.8,6.59,6.59,0,0,1,4.59,2A6.42,6.42,0,0,1,231,27.57a3.5,3.5,0,0,0,3.4,3.59h.1a3.49,3.49,0,0,0,3.49-3.4,13.49,13.49,0,0,0-13.19-13.82h0a12.79,12.79,0,0,0-9.43,3.83,13.67,13.67,0,0,0-4,9.43,3.5,3.5,0,0,0,3.41,3.58h.08"/></g></g></svg>