<?xml version="1.0" encoding="UTF-8"?>
<svg width="170" height="62" viewBox="0 0 226 103" fill="none" xmlns="http://www.w3.org/2000/svg">
<g clip-path="url(#clip0)">
<path d="M167.341 75.4694V80.2633H153.362V14.9295H167.341V37.9402C169.945 35.2008 175.565 33.0093 181.184 33.0093C197.904 33.0093 207.224 42.3231 207.224 56.9787C207.224 71.6343 197.904 80.9481 181.184 80.9481C174.742 80.9481 169.123 78.0718 167.341 75.4694ZM194.341 56.9787C194.341 52.8697 193.244 49.5825 190.915 47.254C188.585 44.9255 185.569 43.6928 182.006 43.6928C178.443 43.6928 175.428 44.9255 173.098 47.254C170.905 49.5825 169.671 52.7327 169.671 56.9787C169.671 61.2247 170.768 64.512 173.098 66.8404C175.428 69.1689 178.443 70.2646 182.006 70.2646C185.569 70.2646 188.585 69.0319 190.915 66.7035C193.244 64.375 194.341 61.0878 194.341 56.9787Z" fill="#5F5CFE"/>
<path d="M209.006 16.4362C212.021 13.5598 216.955 13.5598 219.97 16.4362C222.985 19.3125 222.985 24.1064 219.97 26.9827C216.955 29.859 212.021 29.859 209.006 26.9827C205.99 23.9694 205.99 19.1755 209.006 16.4362ZM207.498 35.0638H221.477V81.496H207.498V35.0638Z" fill="#5F5CFE"/>
<path d="M113.206 75.4694V80.2633H99.0891V14.9295H113.068V37.9402C115.672 35.2008 121.292 33.0093 126.911 33.0093C143.631 33.0093 152.951 42.3231 152.951 56.9787C152.951 71.6343 143.631 80.9481 126.911 80.9481C120.469 80.9481 114.987 78.0718 113.206 75.4694ZM140.068 56.9787C140.068 52.8697 138.971 49.5825 136.642 47.254C134.312 44.9255 131.296 43.8298 127.733 43.8298C124.17 43.8298 121.155 45.0625 118.825 47.391C116.632 49.7194 115.398 52.8697 115.398 57.1157C115.398 61.3617 116.495 64.6489 118.825 66.9774C121.155 69.3059 124.17 70.4016 127.733 70.4016C131.296 70.4016 134.312 69.1689 136.642 66.8404C138.971 64.375 140.068 61.0878 140.068 56.9787Z" fill="#5F5CFE"/>
<path d="M61.8108 82.8657C57.5621 81.359 48.1055 78.0718 46.5979 61.9096V33.2832V36.2965V2.60239H30.5627V36.2965V33.2832V64.7859C31.111 89.8511 53.3135 97.3843 61.8108 96.8364V82.8657Z" fill="#5F5CFE"/>
<g filter="url(#filter0_d)">
<path d="M29.0551 2.60239V27.5306L1.37045 17.121C-0.548288 16.4362 -0.548288 13.6968 1.37045 13.012L29.0551 2.60239Z" fill="#FC9B3D"/>
</g>
<path d="M92.3736 39.4468C87.9879 34.7899 81.9576 32.4614 74.2826 32.4614C66.6077 32.4614 60.7144 34.7899 56.1917 39.4468C51.806 44.1037 49.4761 49.8564 49.4761 56.9787C49.4761 64.1011 51.6689 69.9907 56.1917 74.6476C60.5773 79.3045 66.6077 81.496 74.2826 81.496C81.9576 81.496 87.8508 79.1676 92.3736 74.6476C96.7593 69.9907 99.0892 64.1011 99.0892 56.9787C99.0892 49.8564 96.8963 44.1037 92.3736 39.4468ZM84.1504 67.2513C81.5464 69.7168 78.2572 70.9495 74.2826 70.9495C70.3081 70.9495 67.0188 69.7168 64.4148 67.2513C61.9479 64.7859 60.7144 61.3617 60.7144 56.8418C60.7144 52.4588 61.9479 49.0346 64.4148 46.5692C67.0188 44.1037 70.3081 42.871 74.2826 42.871C78.2572 42.871 81.5464 44.1037 84.1504 46.5692C86.7544 49.0346 87.9879 52.4588 87.9879 56.8418C87.9879 61.3617 86.7544 64.7859 84.1504 67.2513Z" fill="#5F5CFE"/>
<path d="M112.036 89.8852V83.0368H104.91V89.8852H112.036Z" fill="white"/>
<path d="M104.89 96.7702V89.9217H97.7631V96.7702H104.89Z" fill="white"/>
<path d="M112.045 96.7421V89.8937H104.918V96.7421H112.045Z" fill="#231F20"/>
<path d="M104.881 89.9133V83.0648H97.7546V89.9133H104.881Z" fill="#231F20"/>
<path d="M97.7266 89.9413V83.0929H90.5998V89.9413H97.7266Z" fill="white"/>
<path d="M90.5802 96.6893V89.8409H83.4535V96.6893H90.5802Z" fill="white"/>
<path d="M97.7351 96.7982V89.9498H90.6084V96.7982H97.7351Z" fill="#231F20"/>
<path d="M90.5718 89.8324V82.984H83.445V89.8324H90.5718Z" fill="#231F20"/>
<path d="M83.4169 89.8605V83.0121H76.2901V89.8605H83.4169Z" fill="white"/>
<path d="M76.2705 96.7455V89.8971H69.1438V96.7455H76.2705Z" fill="white"/>
<path d="M83.4254 96.7174V89.869H76.2987V96.7174H83.4254Z" fill="#231F20"/>
<path d="M76.2621 89.8886V83.0402H69.1353V89.8886H76.2621Z" fill="#231F20"/>
<path d="M69.1072 89.9167V83.0683H61.9804V89.9167H69.1072Z" fill="white"/>
<path d="M69.1158 96.7736V89.9252H61.9891V96.7736H69.1158Z" fill="#231F20"/>
</g>
<defs>
<filter id="filter0_d" x="-4.0686" y="2.60239" width="37.1237" height="32.9282" filterUnits="userSpaceOnUse" color-interpolation-filters="sRGB">
<feFlood flood-opacity="0" result="BackgroundImageFix"/>
<feColorMatrix in="SourceAlpha" type="matrix" values="0 0 0 0 0 0 0 0 0 0 0 0 0 0 0 0 0 0 127 0"/>
<feOffset dy="4"/>
<feGaussianBlur stdDeviation="2"/>
<feColorMatrix type="matrix" values="0 0 0 0 0 0 0 0 0 0 0 0 0 0 0 0 0 0 0.25 0"/>
<feBlend mode="normal" in2="BackgroundImageFix" result="effect1_dropShadow"/>
<feBlend mode="normal" in="SourceGraphic" in2="effect1_dropShadow" result="shape"/>
</filter>
<clipPath id="clip0">
<rect width="226" height="103" fill="white"/>
</clipPath>
</defs>
</svg>
